<mxfile host="app.diagrams.net" modified="2023-11-18T22:04:49.664Z" agent="Mozilla/5.0 (Windows NT 10.0; Win64; x64) AppleWebKit/537.36 (KHTML, like Gecko) Chrome/119.0.0.0 Safari/537.36" etag="ZiO0Pa_RNLyta1If61iV" version="22.1.3" type="google">
  <diagram name="Page-1" id="13e1069c-82ec-6db2-03f1-153e76fe0fe0">
    <mxGraphModel grid="1" page="1" gridSize="10" guides="1" tooltips="1" connect="1" arrows="1" fold="1" pageScale="1" pageWidth="827" pageHeight="1169" background="none" math="0" shadow="0">
      <root>
        <mxCell id="0" />
        <mxCell id="1" parent="0" />
        <mxCell id="VmN0Bkhsuba4bgQrLUi4-2" style="edgeStyle=orthogonalEdgeStyle;rounded=0;orthogonalLoop=1;jettySize=auto;html=1;dashed=1;endArrow=none;endFill=0;" edge="1" parent="1">
          <mxGeometry relative="1" as="geometry">
            <mxPoint x="150.01" y="1052" as="targetPoint" />
            <mxPoint x="149.51" y="230" as="sourcePoint" />
          </mxGeometry>
        </mxCell>
        <mxCell id="7baba1c4bc27f4b0-3" value=": Reservation&lt;br&gt;Manager" style="shape=umlLifeline;perimeter=lifelinePerimeter;whiteSpace=wrap;html=1;container=1;collapsible=0;recursiveResize=0;outlineConnect=0;rounded=1;shadow=0;comic=0;labelBackgroundColor=none;strokeWidth=1;fontFamily=Verdana;fontSize=12;align=center;fillColor=#fff2cc;strokeColor=#000033;" vertex="1" parent="1">
          <mxGeometry x="341.01" y="172" width="100" height="880" as="geometry" />
        </mxCell>
        <mxCell id="VmN0Bkhsuba4bgQrLUi4-59" value="" style="html=1;points=[];perimeter=orthogonalPerimeter;rounded=0;shadow=0;comic=0;labelBackgroundColor=none;strokeWidth=1;fontFamily=Verdana;fontSize=12;align=center;" vertex="1" parent="7baba1c4bc27f4b0-3">
          <mxGeometry x="45" y="151" width="10" height="699" as="geometry" />
        </mxCell>
        <mxCell id="VmN0Bkhsuba4bgQrLUi4-60" value="" style="html=1;points=[];perimeter=orthogonalPerimeter;rounded=0;shadow=0;comic=0;labelBackgroundColor=none;strokeWidth=1;fontFamily=Verdana;fontSize=12;align=center;" vertex="1" parent="7baba1c4bc27f4b0-3">
          <mxGeometry x="49" y="231" width="10" height="40" as="geometry" />
        </mxCell>
        <mxCell id="7baba1c4bc27f4b0-4" value=":Pay" style="shape=umlLifeline;perimeter=lifelinePerimeter;whiteSpace=wrap;html=1;container=1;collapsible=0;recursiveResize=0;outlineConnect=0;rounded=1;shadow=0;comic=0;labelBackgroundColor=none;strokeWidth=1;fontFamily=Verdana;fontSize=12;align=center;fillColor=#fff2cc;strokeColor=#1d1c1b;" vertex="1" parent="1">
          <mxGeometry x="579.01" y="172" width="100" height="870" as="geometry" />
        </mxCell>
        <mxCell id="7baba1c4bc27f4b0-9" value="" style="html=1;points=[];perimeter=orthogonalPerimeter;rounded=0;shadow=0;comic=0;labelBackgroundColor=none;strokeWidth=1;fontFamily=Verdana;fontSize=12;align=center;" vertex="1" parent="1">
          <mxGeometry x="145.01" y="333" width="10" height="689" as="geometry" />
        </mxCell>
        <mxCell id="VmN0Bkhsuba4bgQrLUi4-1" value="Client" style="shape=umlActor;verticalLabelPosition=bottom;verticalAlign=top;html=1;outlineConnect=0;fillColor=#fff2cc;strokeColor=#000033;" vertex="1" parent="1">
          <mxGeometry x="135.01" y="151" width="30" height="60" as="geometry" />
        </mxCell>
        <mxCell id="VmN0Bkhsuba4bgQrLUi4-19" value="Reminder SMS (15 min late)" style="html=1;verticalAlign=bottom;endArrow=open;dashed=1;endSize=8;labelBackgroundColor=none;fontFamily=Verdana;fontSize=12;edgeStyle=elbowEdgeStyle;elbow=vertical;" edge="1" parent="1">
          <mxGeometry relative="1" as="geometry">
            <mxPoint x="155.01" y="332" as="targetPoint" />
            <Array as="points">
              <mxPoint x="230.01" y="332" />
              <mxPoint x="260.01" y="332" />
            </Array>
            <mxPoint x="385.01" y="332" as="sourcePoint" />
            <mxPoint as="offset" />
          </mxGeometry>
        </mxCell>
        <mxCell id="VmN0Bkhsuba4bgQrLUi4-22" value="Request Delay" style="html=1;verticalAlign=bottom;endArrow=block;entryX=0;entryY=0;labelBackgroundColor=none;fontFamily=Verdana;fontSize=12;edgeStyle=elbowEdgeStyle;elbow=vertical;" edge="1" parent="1">
          <mxGeometry relative="1" as="geometry">
            <mxPoint x="155.01" y="373" as="sourcePoint" />
            <mxPoint x="387.01" y="373" as="targetPoint" />
          </mxGeometry>
        </mxCell>
        <mxCell id="VmN0Bkhsuba4bgQrLUi4-32" value="Alternative" style="shape=umlFrame;whiteSpace=wrap;html=1;pointerEvents=0;width=70;height=30;movable=1;resizable=1;rotatable=1;deletable=1;editable=1;locked=0;connectable=1;fillColor=#f5f5f5;strokeColor=#666666;fontColor=#333333;" vertex="1" parent="1">
          <mxGeometry x="90.01" y="240" width="650" height="842" as="geometry" />
        </mxCell>
        <mxCell id="VmN0Bkhsuba4bgQrLUi4-33" value="&lt;font style=&quot;&quot; color=&quot;#000099&quot;&gt;&lt;u style=&quot;&quot;&gt;&lt;b&gt;IF :&amp;nbsp;&lt;/b&gt;&lt;/u&gt;&lt;/font&gt;&lt;b&gt;&lt;font color=&quot;#000099&quot;&gt;Late Arrival&lt;/font&gt;&lt;/b&gt;" style="text;html=1;align=center;verticalAlign=middle;resizable=1;points=[];autosize=1;strokeColor=#6c8ebf;fillColor=#dae8fc;movable=1;rotatable=1;deletable=1;editable=1;locked=0;connectable=1;" vertex="1" parent="1">
          <mxGeometry x="94.01" y="277" width="110" height="30" as="geometry" />
        </mxCell>
        <mxCell id="VmN0Bkhsuba4bgQrLUi4-34" value="Reminder Email/SMS" style="html=1;verticalAlign=bottom;endArrow=open;dashed=1;endSize=8;labelBackgroundColor=none;fontFamily=Verdana;fontSize=12;edgeStyle=elbowEdgeStyle;elbow=vertical;" edge="1" parent="1">
          <mxGeometry relative="1" as="geometry">
            <mxPoint x="155.01" y="531" as="targetPoint" />
            <Array as="points">
              <mxPoint x="230.01" y="531" />
              <mxPoint x="260.01" y="531" />
            </Array>
            <mxPoint x="385.01" y="531" as="sourcePoint" />
            <mxPoint as="offset" />
          </mxGeometry>
        </mxCell>
        <mxCell id="VmN0Bkhsuba4bgQrLUi4-35" value="Confirm Reservation (within 30 min)" style="html=1;verticalAlign=bottom;endArrow=block;entryX=0;entryY=0;labelBackgroundColor=none;fontFamily=Verdana;fontSize=12;edgeStyle=elbowEdgeStyle;elbow=vertical;" edge="1" parent="1">
          <mxGeometry relative="1" as="geometry">
            <mxPoint x="156.01" y="571" as="sourcePoint" />
            <mxPoint x="388.01" y="571" as="targetPoint" />
            <mxPoint as="offset" />
          </mxGeometry>
        </mxCell>
        <mxCell id="7baba1c4bc27f4b0-22" value="" style="html=1;points=[];perimeter=orthogonalPerimeter;rounded=0;shadow=0;comic=0;labelBackgroundColor=none;strokeWidth=1;fontFamily=Verdana;fontSize=12;align=center;" vertex="1" parent="1">
          <mxGeometry x="624.01" y="692" width="10" height="170" as="geometry" />
        </mxCell>
        <mxCell id="VmN0Bkhsuba4bgQrLUi4-41" value="&lt;b&gt;&lt;font color=&quot;#000099&quot;&gt;&lt;u&gt;END&lt;/u&gt;&lt;/font&gt;&lt;/b&gt;" style="text;html=1;align=center;verticalAlign=middle;resizable=1;points=[];autosize=1;strokeColor=#6c8ebf;fillColor=#dae8fc;movable=1;rotatable=1;deletable=1;editable=1;locked=0;connectable=1;" vertex="1" parent="1">
          <mxGeometry x="92.01" y="1003" width="50" height="30" as="geometry" />
        </mxCell>
        <mxCell id="VmN0Bkhsuba4bgQrLUi4-42" value="" style="endArrow=none;dashed=1;html=1;rounded=0;exitX=-0.005;exitY=0.559;exitDx=0;exitDy=0;exitPerimeter=0;" edge="1" parent="1">
          <mxGeometry width="50" height="50" relative="1" as="geometry">
            <mxPoint x="87.00000000000006" y="469.80000000000007" as="sourcePoint" />
            <mxPoint x="740.01" y="472" as="targetPoint" />
          </mxGeometry>
        </mxCell>
        <mxCell id="VmN0Bkhsuba4bgQrLUi4-58" value="&lt;b&gt;&lt;u&gt;&lt;font style=&quot;font-size: 16px;&quot;&gt;Diagramme de sÃ©quence : Processus payment acount&lt;/font&gt;&lt;/u&gt;&lt;/b&gt;" style="text;html=1;align=center;verticalAlign=middle;resizable=0;points=[];autosize=1;strokeColor=none;fillColor=none;" vertex="1" parent="1">
          <mxGeometry x="90.00999999999999" y="40" width="430" height="30" as="geometry" />
        </mxCell>
        <mxCell id="VmN0Bkhsuba4bgQrLUi4-62" value="Update Reservation&lt;br&gt;Time" style="html=1;verticalAlign=bottom;endArrow=block;labelBackgroundColor=none;fontFamily=Verdana;fontSize=12;elbow=vertical;edgeStyle=orthogonalEdgeStyle;curved=1;entryX=1;entryY=0.286;entryPerimeter=0;exitX=1.038;exitY=0.345;exitPerimeter=0;" edge="1" parent="1">
          <mxGeometry relative="1" as="geometry">
            <mxPoint x="396.01" y="392" as="sourcePoint" />
            <mxPoint x="401.01" y="430" as="targetPoint" />
            <Array as="points">
              <mxPoint x="451.01" y="392" />
              <mxPoint x="451.01" y="430" />
            </Array>
          </mxGeometry>
        </mxCell>
        <mxCell id="VmN0Bkhsuba4bgQrLUi4-63" value="&lt;font color=&quot;#000099&quot;&gt;&lt;b&gt;&lt;u&gt;ELSE : No Confirmation&lt;/u&gt;&lt;/b&gt;&lt;/font&gt;" style="text;html=1;align=center;verticalAlign=middle;resizable=1;points=[];autosize=1;strokeColor=#6c8ebf;fillColor=#dae8fc;movable=1;rotatable=1;deletable=1;editable=1;locked=0;connectable=1;" vertex="1" parent="1">
          <mxGeometry x="93.01" y="477" width="160" height="30" as="geometry" />
        </mxCell>
        <mxCell id="VmN0Bkhsuba4bgQrLUi4-64" value="Alternative" style="shape=umlFrame;whiteSpace=wrap;html=1;pointerEvents=0;width=70;height=30;movable=1;resizable=1;rotatable=1;deletable=1;editable=1;locked=0;connectable=1;fillColor=#f5f5f5;fontColor=#333333;strokeColor=#666666;" vertex="1" parent="1">
          <mxGeometry x="110.01" y="593" width="590" height="469" as="geometry" />
        </mxCell>
        <mxCell id="VmN0Bkhsuba4bgQrLUi4-65" value="&lt;font style=&quot;&quot; color=&quot;#000099&quot;&gt;&lt;u style=&quot;&quot;&gt;&lt;b&gt;IF : Acompte Required&lt;/b&gt;&lt;/u&gt;&lt;/font&gt;" style="text;html=1;align=center;verticalAlign=middle;resizable=1;points=[];autosize=1;strokeColor=#82b366;fillColor=#d5e8d4;movable=1;rotatable=1;deletable=1;editable=1;locked=0;connectable=1;" vertex="1" parent="1">
          <mxGeometry x="123.01" y="629" width="150" height="30" as="geometry" />
        </mxCell>
        <mxCell id="VmN0Bkhsuba4bgQrLUi4-66" value="Acompte Payment Confirmation" style="html=1;verticalAlign=bottom;endArrow=open;dashed=1;endSize=8;labelBackgroundColor=none;fontFamily=Verdana;fontSize=12;edgeStyle=elbowEdgeStyle;elbow=vertical;" edge="1" parent="1">
          <mxGeometry relative="1" as="geometry">
            <mxPoint x="396.01" y="732" as="targetPoint" />
            <Array as="points">
              <mxPoint x="471.01" y="732" />
              <mxPoint x="501.01" y="732" />
            </Array>
            <mxPoint x="626.01" y="732" as="sourcePoint" />
            <mxPoint as="offset" />
          </mxGeometry>
        </mxCell>
        <mxCell id="VmN0Bkhsuba4bgQrLUi4-67" value="Process Acompte Payment" style="html=1;verticalAlign=bottom;endArrow=block;entryX=0;entryY=0;labelBackgroundColor=none;fontFamily=Verdana;fontSize=12;edgeStyle=elbowEdgeStyle;elbow=vertical;" edge="1" parent="1">
          <mxGeometry relative="1" as="geometry">
            <mxPoint x="395.01" y="690" as="sourcePoint" />
            <mxPoint x="627.01" y="690" as="targetPoint" />
            <mxPoint as="offset" />
          </mxGeometry>
        </mxCell>
        <mxCell id="VmN0Bkhsuba4bgQrLUi4-68" value="&lt;font style=&quot;&quot; color=&quot;#000099&quot;&gt;&lt;u style=&quot;&quot;&gt;&lt;b&gt;ELSE : Caution Required&lt;/b&gt;&lt;/u&gt;&lt;/font&gt;" style="text;html=1;align=center;verticalAlign=middle;resizable=1;points=[];autosize=1;strokeColor=#82b366;fillColor=#d5e8d4;movable=1;rotatable=1;deletable=1;editable=1;locked=0;connectable=1;" vertex="1" parent="1">
          <mxGeometry x="122.01" y="762" width="170" height="30" as="geometry" />
        </mxCell>
        <mxCell id="VmN0Bkhsuba4bgQrLUi4-69" value="Caution Payment Confirmation" style="html=1;verticalAlign=bottom;endArrow=open;dashed=1;endSize=8;labelBackgroundColor=none;fontFamily=Verdana;fontSize=12;edgeStyle=elbowEdgeStyle;elbow=vertical;" edge="1" parent="1">
          <mxGeometry relative="1" as="geometry">
            <mxPoint x="394.01" y="853" as="targetPoint" />
            <Array as="points">
              <mxPoint x="469.01" y="853" />
              <mxPoint x="499.01" y="853" />
            </Array>
            <mxPoint x="624.01" y="853" as="sourcePoint" />
            <mxPoint as="offset" />
          </mxGeometry>
        </mxCell>
        <mxCell id="VmN0Bkhsuba4bgQrLUi4-70" value="Process Caution Payment" style="html=1;verticalAlign=bottom;endArrow=block;entryX=0;entryY=0;labelBackgroundColor=none;fontFamily=Verdana;fontSize=12;edgeStyle=elbowEdgeStyle;elbow=vertical;" edge="1" parent="1">
          <mxGeometry relative="1" as="geometry">
            <mxPoint x="393.01" y="812" as="sourcePoint" />
            <mxPoint x="625.01" y="812" as="targetPoint" />
            <mxPoint as="offset" />
          </mxGeometry>
        </mxCell>
        <mxCell id="VmN0Bkhsuba4bgQrLUi4-71" value="&lt;font style=&quot;&quot; color=&quot;#000099&quot;&gt;&lt;u style=&quot;&quot;&gt;&lt;b&gt;ELSE : No&amp;nbsp; Payment Required&lt;/b&gt;&lt;/u&gt;&lt;/font&gt;" style="text;html=1;align=center;verticalAlign=middle;resizable=1;points=[];autosize=1;strokeColor=#82b366;fillColor=#d5e8d4;movable=1;rotatable=1;deletable=1;editable=1;locked=0;connectable=1;" vertex="1" parent="1">
          <mxGeometry x="125.01" y="872" width="190" height="30" as="geometry" />
        </mxCell>
        <mxCell id="VmN0Bkhsuba4bgQrLUi4-72" value="" style="html=1;points=[];perimeter=orthogonalPerimeter;rounded=0;shadow=0;comic=0;labelBackgroundColor=none;strokeWidth=1;fontFamily=Verdana;fontSize=12;align=center;" vertex="1" parent="1">
          <mxGeometry x="391.01" y="923" width="10" height="40" as="geometry" />
        </mxCell>
        <mxCell id="VmN0Bkhsuba4bgQrLUi4-73" value="Reservtion Confirmed" style="html=1;verticalAlign=bottom;endArrow=block;labelBackgroundColor=none;fontFamily=Verdana;fontSize=12;elbow=vertical;edgeStyle=orthogonalEdgeStyle;curved=1;entryX=1;entryY=0.286;entryPerimeter=0;exitX=1.038;exitY=0.345;exitPerimeter=0;" edge="1" parent="1">
          <mxGeometry x="-0.1608" y="18" relative="1" as="geometry">
            <mxPoint x="397.01" y="907" as="sourcePoint" />
            <mxPoint x="402.01" y="945" as="targetPoint" />
            <Array as="points">
              <mxPoint x="452.01" y="907" />
              <mxPoint x="452.01" y="945" />
            </Array>
            <mxPoint as="offset" />
          </mxGeometry>
        </mxCell>
        <mxCell id="VmN0Bkhsuba4bgQrLUi4-75" value="&lt;b&gt;&lt;font color=&quot;#000099&quot;&gt;&lt;u&gt;END&lt;/u&gt;&lt;/font&gt;&lt;/b&gt;" style="text;html=1;align=center;verticalAlign=middle;resizable=1;points=[];autosize=1;strokeColor=#82b366;fillColor=#d5e8d4;movable=1;rotatable=1;deletable=1;editable=1;locked=0;connectable=1;" vertex="1" parent="1">
          <mxGeometry x="124.01" y="958" width="50" height="30" as="geometry" />
        </mxCell>
        <mxCell id="VmN0Bkhsuba4bgQrLUi4-76" value="" style="endArrow=none;dashed=1;html=1;rounded=0;exitX=-0.005;exitY=0.559;exitDx=0;exitDy=0;exitPerimeter=0;" edge="1" parent="1">
          <mxGeometry width="50" height="50" relative="1" as="geometry">
            <mxPoint x="145.01000000000005" y="752" as="sourcePoint" />
            <mxPoint x="700.01" y="754" as="targetPoint" />
          </mxGeometry>
        </mxCell>
        <mxCell id="VmN0Bkhsuba4bgQrLUi4-77" value="" style="endArrow=none;dashed=1;html=1;rounded=0;exitX=-0.005;exitY=0.559;exitDx=0;exitDy=0;exitPerimeter=0;" edge="1" parent="1">
          <mxGeometry width="50" height="50" relative="1" as="geometry">
            <mxPoint x="145.01000000000005" y="865" as="sourcePoint" />
            <mxPoint x="700.01" y="867" as="targetPoint" />
          </mxGeometry>
        </mxCell>
      </root>
    </mxGraphModel>
  </diagram>
</mxfile>
